***************************************************************

[IMG]http://i1113.photobucket.com/albums/k502/chrisdeloon/greyshadowsig25-1-2012.png[/IMG]

***************************************************************

[IMG]http://i1113.photobucket.com/albums/k502/chrisdeloon/stieglarssonExtendedmilleniumtrilogyposter.png[/IMG]

***************************************************************

FILM TITLE: The Girl Who Played With Fire 2009 (Full Original TV Version) [Part 4 of 6]

ORIGINAL TITLE: Flickan Som Lekte Med Elden

***************************************************************

[IMG]http://i1113.photobucket.com/albums/k502/chrisdeloon/stieglarssonepisodelist.png[/IMG]

***************************************************************

Genre:  Crime | Drama | Mystery  

Rated R for disturbing violent content including rape, grisly images, 
sexual material, nudity and language

Release: Scandinavia in 2009.

Director: Niels Arden Oplev

Writer: Nikolaj Arcel (screenplay), Rasmus Heisterberg (screenplay), Stieg Larsson (novel)

Stars: Michael Nyqvist, Noomi Rapace and Ewa Fröling

Country: Sweden | Denmark | Germany | Norway

Language: Swedish | English

Plot:
A journalist is aided in his search for a woman who has been missing -- or dead

-- for forty years by a young female hacker.

IMDB Rating: 8.1/10 from 445 users
 
http://www.imdb.com/title/tt1634549/

****************************************************************

[IMG]http://i1113.photobucket.com/albums/k502/chrisdeloon/stieglarssonpart4x264megui.png[/IMG]
[IMG]http://i1113.photobucket.com/albums/k502/chrisdeloon/stiegpart4x2641.png[/IMG]
[IMG]http://i1113.photobucket.com/albums/k502/chrisdeloon/stiegpart4x2642.png[/IMG]
[IMG]http://i1113.photobucket.com/albums/k502/chrisdeloon/stiegpart4x2643.png[/IMG]
[IMG]http://i1113.photobucket.com/albums/k502/chrisdeloon/stiegpart4x2644.png[/IMG]

****************************************************************

General
Unique ID                        : 182827363992235168421342526341802810710 (0x898B44FDBAB8711EAA9FF92D8CD2DD56)
Complete name                    : Stieg Larsson Millennium Trilogy 2009 (Full Original TV Version) [Part 4 of 6] 1080p BDRip x264 dual ac3 sub (mkv) [GREYSHADOW]
Format                           : Matroska
Format version                   : Version 2
File size                        : 3.44 GiB
Duration                         : 1h 33mn
Overall bit rate                 : 5 281 Kbps
Encoded date                     : UTC 2012-01-19 14:35:32
Writing application              : mkvmerge v5.2.1 ('A Far Off Place') built on Jan  2 2012 23:21:10
Writing library                  : libebml v1.2.3 + libmatroska v1.3.0

Video
ID                               : 1
Format                           : AVC
Format/Info                      : Advanced Video Codec
Format profile                   : High@L4.1
Format settings, CABAC           : Yes
Format settings, ReFrames        : 4 frames
Muxing mode                      : Header stripping
Codec ID                         : V_MPEG4/ISO/AVC
Duration                         : 1h 33mn
Bit rate                         : 4 000 Kbps
Width                            : 1 918 pixels
Height                           : 1 078 pixels
Display aspect ratio             : 16:9
Frame rate                       : 23.976 fps
Color space                      : YUV
Chroma subsampling               : 4:2:0
Bit depth                        : 8 bits
Scan type                        : Progressive
Bits/(Pixel*Frame)               : 0.081
Stream size                      : 2.54 GiB (74%)
Title                            : AVC MPEG4 Video
Writing library                  : x264 core 120 r2120 0c7dab9
Language                         : Swedish
Color primaries                  : BT.709-5, BT.1361, IEC 61966-2-4, SMPTE RP177
Transfer characteristics         : BT.709-5, BT.1361
Matrix coefficients              : BT.709-5, BT.1361, IEC 61966-2-4 709, SMPTE RP177

Audio #1
ID                               : 2
Format                           : AC-3
Format/Info                      : Audio Coding 3
Mode extension                   : CM (complete main)
Muxing mode                      : Header stripping
Codec ID                         : A_AC3
Duration                         : 1h 33mn
Bit rate mode                    : Constant
Bit rate                         : 640 Kbps
Channel(s)                       : 6 channels
Channel positions                : Front: L C R, Side: L R, LFE
Sampling rate                    : 48.0 KHz
Bit depth                        : 16 bits
Compression mode                 : Lossy
Stream size                      : 427 MiB (12%)
Title                            : Swedish AC3 5.1 640kbps Audio
Language                         : Swedish

Audio #2
ID                               : 3
Format                           : AC-3
Format/Info                      : Audio Coding 3
Mode extension                   : CM (complete main)
Muxing mode                      : Header stripping
Codec ID                         : A_AC3
Duration                         : 1h 33mn
Bit rate mode                    : Constant
Bit rate                         : 640 Kbps
Channel(s)                       : 6 channels
Channel positions                : Front: L C R, Side: L R, LFE
Sampling rate                    : 48.0 KHz
Bit depth                        : 16 bits
Compression mode                 : Lossy
Stream size                      : 427 MiB (12%)
Title                            : English AC3 5.1 640kbps Audio (dubbed)
Language                         : English

Text #1
ID                               : 4
Format                           : UTF-8
Codec ID                         : S_TEXT/UTF8
Codec ID/Info                    : UTF-8 Plain Text
Title                            : English Sub sup to srt
Language                         : English

Text #2
ID                               : 5
Format                           : UTF-8
Codec ID                         : S_TEXT/UTF8
Codec ID/Info                    : UTF-8 Plain Text
Title                            : English Sub For English Audio sup to srt
Language                         : English

****************************************************************

Video Source: The Girl with the Dragon Tattoo (Millennium Trilogy 1 of 3) - Man Som Hatar Kvinnor 2009 EXTENDED 1080p GBP Blu-ray AVC DTS-HD MA 5.1

Thanks: chdbits.org

****************************************************************

I provide a small sample, so please download this to check your 
compatibility first if you are unsure.

****************************************************************

Hash: 5BDEB6B0DDA4ECB3C64B42DE2D8020655E82A997

Trackers:
.udp://tracker.1337x.org:80/announce
.udp://tracker.openbittorrent.com:80/announce

****************************************************************